<?xml version="1.0" standalone="no"?>
<!-- Generator: Gravit.io -->
<svg xmlns="http://www.w3.org/2000/svg" xmlns:xlink="http://www.w3.org/1999/xlink" style="isolation:isolate" viewBox="0 0 90 380" width="90" height="380">
	<defs>
		<clipPath id="_clipPath_yJym9ivSomsJnYyqkXcWc1k3ezyzHWVM">
			<rect width="90" height="380" />
		</clipPath>
	</defs>
	<g clip-path="url(#_clipPath_yJym9ivSomsJnYyqkXcWc1k3ezyzHWVM)">
		<path d=" M -0.596 0 L 89.404 0 L 89.404 380 L -0.596 380 L -0.596 0 Z " fill-rule="evenodd" id="rect817" fill="rgb(240,240,240)" />
		<path d=" M 59.296 34.247 L 59.296 34.247 L 59.296 34.247 Q 59.296 35.764 58.26 36.581 L 58.26 36.581 L 58.26 36.581 Q 57.224 37.398 55.297 37.398 L 55.297 37.398 L 54.121 37.398 L 54.121 41.329 L 52.959 41.329 L 52.959 31.334 L 55.55 31.334 L 55.55 31.334 Q 59.296 31.334 59.296 34.247 Z  M 54.121 32.339 L 54.121 36.4 L 55.167 36.4 L 55.167 36.4 Q 56.712 36.4 57.402 35.901 L 57.402 35.901 L 57.402 35.901 Q 58.093 35.402 58.093 34.301 L 58.093 34.301 L 58.093 34.301 Q 58.093 33.31 57.443 32.825 L 57.443 32.825 L 57.443 32.825 Q 56.794 32.339 55.42 32.339 L 55.42 32.339 L 54.121 32.339 L 54.121 32.339 Z  M 62.351 33.836 L 62.351 41.329 L 61.217 41.329 L 61.217 33.836 L 62.351 33.836 L 62.351 33.836 Z  M 61.121 31.806 L 61.121 31.806 L 61.121 31.806 Q 61.121 31.416 61.312 31.235 L 61.312 31.235 L 61.312 31.235 Q 61.504 31.054 61.791 31.054 L 61.791 31.054 L 61.791 31.054 Q 62.064 31.054 62.262 31.239 L 62.262 31.239 L 62.262 31.239 Q 62.461 31.423 62.461 31.806 L 62.461 31.806 L 62.461 31.806 Q 62.461 32.189 62.262 32.377 L 62.262 32.377 L 62.262 32.377 Q 62.064 32.565 61.791 32.565 L 61.791 32.565 L 61.791 32.565 Q 61.504 32.565 61.312 32.377 L 61.312 32.377 L 61.312 32.377 Q 61.121 32.189 61.121 31.806 Z  M 67.177 40.529 L 67.177 40.529 L 67.177 40.529 Q 67.478 40.529 67.759 40.484 L 67.759 40.484 L 67.759 40.484 Q 68.039 40.44 68.203 40.392 L 68.203 40.392 L 68.203 41.26 L 68.203 41.26 Q 68.018 41.349 67.659 41.407 L 67.659 41.407 L 67.659 41.407 Q 67.301 41.465 67.013 41.465 L 67.013 41.465 L 67.013 41.465 Q 64.84 41.465 64.84 39.175 L 64.84 39.175 L 64.84 34.718 L 63.766 34.718 L 63.766 34.171 L 64.84 33.7 L 65.318 32.1 L 65.974 32.1 L 65.974 33.836 L 68.148 33.836 L 68.148 34.718 L 65.974 34.718 L 65.974 39.127 L 65.974 39.127 Q 65.974 39.804 66.296 40.166 L 66.296 40.166 L 66.296 40.166 Q 66.617 40.529 67.177 40.529 Z  M 72.694 41.465 L 72.694 41.465 L 72.694 41.465 Q 71.067 41.465 70.175 40.464 L 70.175 40.464 L 70.175 40.464 Q 69.283 39.462 69.283 37.63 L 69.283 37.63 L 69.283 37.63 Q 69.283 35.75 70.189 34.725 L 70.189 34.725 L 70.189 34.725 Q 71.094 33.7 72.769 33.7 L 72.769 33.7 L 72.769 33.7 Q 73.309 33.7 73.849 33.816 L 73.849 33.816 L 73.849 33.816 Q 74.389 33.932 74.697 34.089 L 74.697 34.089 L 74.348 35.053 L 74.348 35.053 Q 73.972 34.903 73.528 34.804 L 73.528 34.804 L 73.528 34.804 Q 73.084 34.705 72.742 34.705 L 72.742 34.705 L 72.742 34.705 Q 70.459 34.705 70.459 37.617 L 70.459 37.617 L 70.459 37.617 Q 70.459 38.997 71.016 39.736 L 71.016 39.736 L 71.016 39.736 Q 71.573 40.474 72.667 40.474 L 72.667 40.474 L 72.667 40.474 Q 73.603 40.474 74.588 40.071 L 74.588 40.071 L 74.588 41.076 L 74.588 41.076 Q 73.836 41.465 72.694 41.465 Z  M 82.627 41.329 L 81.492 41.329 L 81.492 36.482 L 81.492 36.482 Q 81.492 35.566 81.075 35.115 L 81.075 35.115 L 81.075 35.115 Q 80.658 34.664 79.769 34.664 L 79.769 34.664 L 79.769 34.664 Q 78.587 34.664 78.043 35.306 L 78.043 35.306 L 78.043 35.306 Q 77.5 35.949 77.5 37.412 L 77.5 37.412 L 77.5 41.329 L 76.365 41.329 L 76.365 30.692 L 77.5 30.692 L 77.5 33.912 L 77.5 33.912 Q 77.5 34.493 77.445 34.875 L 77.445 34.875 L 77.513 34.875 L 77.513 34.875 Q 77.848 34.335 78.467 34.024 L 78.467 34.024 L 78.467 34.024 Q 79.086 33.713 79.879 33.713 L 79.879 33.713 L 79.879 33.713 Q 81.253 33.713 81.94 34.366 L 81.94 34.366 L 81.94 34.366 Q 82.627 35.019 82.627 36.441 L 82.627 36.441 L 82.627 41.329 L 82.627 41.329 Z  M 13.085 31.334 L 13.085 41.329 L 11.759 41.329 L 6.297 32.941 L 6.242 32.941 L 6.242 32.941 Q 6.351 34.417 6.351 35.648 L 6.351 35.648 L 6.351 41.329 L 5.278 41.329 L 5.278 31.334 L 6.591 31.334 L 12.039 39.688 L 12.093 39.688 L 12.093 39.688 Q 12.08 39.503 12.032 38.502 L 12.032 38.502 L 12.032 38.502 Q 11.984 37.5 11.998 37.07 L 11.998 37.07 L 11.998 31.334 L 13.085 31.334 L 13.085 31.334 Z  M 18.827 41.465 L 18.827 41.465 L 18.827 41.465 Q 17.166 41.465 16.205 40.454 L 16.205 40.454 L 16.205 40.454 Q 15.245 39.442 15.245 37.644 L 15.245 37.644 L 15.245 37.644 Q 15.245 35.832 16.137 34.766 L 16.137 34.766 L 16.137 34.766 Q 17.029 33.7 18.533 33.7 L 18.533 33.7 L 18.533 33.7 Q 19.941 33.7 20.761 34.626 L 20.761 34.626 L 20.761 34.626 Q 21.582 35.552 21.582 37.07 L 21.582 37.07 L 21.582 37.788 L 16.421 37.788 L 16.421 37.788 Q 16.455 39.107 17.087 39.79 L 17.087 39.79 L 17.087 39.79 Q 17.719 40.474 18.868 40.474 L 18.868 40.474 L 18.868 40.474 Q 20.078 40.474 21.26 39.968 L 21.26 39.968 L 21.26 40.98 L 21.26 40.98 Q 20.659 41.24 20.122 41.352 L 20.122 41.352 L 20.122 41.352 Q 19.586 41.465 18.827 41.465 Z  M 18.519 34.65 L 18.519 34.65 L 18.519 34.65 Q 17.617 34.65 17.08 35.238 L 17.08 35.238 L 17.08 35.238 Q 16.544 35.826 16.448 36.865 L 16.448 36.865 L 20.365 36.865 L 20.365 36.865 Q 20.365 35.791 19.886 35.221 L 19.886 35.221 L 19.886 35.221 Q 19.408 34.65 18.519 34.65 Z  M 23.434 33.836 L 24.583 33.836 L 24.583 38.697 L 24.583 38.697 Q 24.583 39.613 25 40.064 L 25 40.064 L 25 40.064 Q 25.417 40.515 26.305 40.515 L 26.305 40.515 L 26.305 40.515 Q 27.481 40.515 28.025 39.872 L 28.025 39.872 L 28.025 39.872 Q 28.568 39.23 28.568 37.774 L 28.568 37.774 L 28.568 33.836 L 29.703 33.836 L 29.703 41.329 L 28.766 41.329 L 28.602 40.324 L 28.541 40.324 L 28.541 40.324 Q 28.192 40.877 27.573 41.171 L 27.573 41.171 L 27.573 41.171 Q 26.955 41.465 26.162 41.465 L 26.162 41.465 L 26.162 41.465 Q 24.795 41.465 24.114 40.816 L 24.114 40.816 L 24.114 40.816 Q 23.434 40.166 23.434 38.738 L 23.434 38.738 L 23.434 33.836 L 23.434 33.836 Z  M 35.527 33.7 L 35.527 33.7 L 35.527 33.7 Q 36.026 33.7 36.423 33.782 L 36.423 33.782 L 36.265 34.834 L 36.265 34.834 Q 35.801 34.732 35.445 34.732 L 35.445 34.732 L 35.445 34.732 Q 34.536 34.732 33.89 35.47 L 33.89 35.47 L 33.89 35.47 Q 33.244 36.208 33.244 37.309 L 33.244 37.309 L 33.244 41.329 L 32.109 41.329 L 32.109 33.836 L 33.046 33.836 L 33.176 35.224 L 33.23 35.224 L 33.23 35.224 Q 33.647 34.493 34.235 34.096 L 34.235 34.096 L 34.235 34.096 Q 34.823 33.7 35.527 33.7 Z  M 43.272 41.329 L 42.431 41.329 L 42.206 40.262 L 42.151 40.262 L 42.151 40.262 Q 41.591 40.966 41.033 41.216 L 41.033 41.216 L 41.033 41.216 Q 40.476 41.465 39.642 41.465 L 39.642 41.465 L 39.642 41.465 Q 38.528 41.465 37.896 40.891 L 37.896 40.891 L 37.896 40.891 Q 37.263 40.317 37.263 39.257 L 37.263 39.257 L 37.263 39.257 Q 37.263 36.988 40.893 36.878 L 40.893 36.878 L 42.165 36.837 L 42.165 36.372 L 42.165 36.372 Q 42.165 35.491 41.785 35.07 L 41.785 35.07 L 41.785 35.07 Q 41.406 34.65 40.572 34.65 L 40.572 34.65 L 40.572 34.65 Q 39.635 34.65 38.453 35.224 L 38.453 35.224 L 38.104 34.356 L 38.104 34.356 Q 38.658 34.055 39.318 33.884 L 39.318 33.884 L 39.318 33.884 Q 39.977 33.713 40.64 33.713 L 40.64 33.713 L 40.64 33.713 Q 41.98 33.713 42.626 34.308 L 42.626 34.308 L 42.626 34.308 Q 43.272 34.903 43.272 36.215 L 43.272 36.215 L 43.272 41.329 L 43.272 41.329 Z  M 39.868 40.529 L 39.868 40.529 L 39.868 40.529 Q 40.927 40.529 41.532 39.948 L 41.532 39.948 L 41.532 39.948 Q 42.137 39.367 42.137 38.321 L 42.137 38.321 L 42.137 37.644 L 41.003 37.692 L 41.003 37.692 Q 39.649 37.74 39.051 38.112 L 39.051 38.112 L 39.051 38.112 Q 38.453 38.485 38.453 39.271 L 38.453 39.271 L 38.453 39.271 Q 38.453 39.886 38.825 40.207 L 38.825 40.207 L 38.825 40.207 Q 39.198 40.529 39.868 40.529 Z  M 46.745 30.692 L 46.745 41.329 L 45.61 41.329 L 45.61 30.692 L 46.745 30.692 L 46.745 30.692 Z " fill-rule="evenodd" id="Compound Path" fill="rgb(0,0,0)" />
		<path d=" M 30.801 94.102 L 29.312 94.102 L 29.312 97.07 L 28.481 97.07 L 28.481 89.932 L 30.439 89.932 L 30.439 89.932 Q 31.753 89.932 32.38 90.435 L 32.38 90.435 L 32.38 90.435 Q 33.008 90.938 33.008 91.948 L 33.008 91.948 L 33.008 91.948 Q 33.008 93.364 31.572 93.862 L 31.572 93.862 L 33.511 97.07 L 32.529 97.07 L 30.801 94.102 L 30.801 94.102 Z  M 29.312 90.659 L 29.312 93.389 L 30.449 93.389 L 30.449 93.389 Q 31.328 93.389 31.738 93.04 L 31.738 93.04 L 31.738 93.04 Q 32.148 92.69 32.148 91.992 L 32.148 91.992 L 32.148 91.992 Q 32.148 91.284 31.731 90.972 L 31.731 90.972 L 31.731 90.972 Q 31.313 90.659 30.391 90.659 L 30.391 90.659 L 29.312 90.659 L 29.312 90.659 Z  M 36.802 97.168 L 36.802 97.168 L 36.802 97.168 Q 35.615 97.168 34.929 96.445 L 34.929 96.445 L 34.929 96.445 Q 34.243 95.723 34.243 94.438 L 34.243 94.438 L 34.243 94.438 Q 34.243 93.145 34.88 92.383 L 34.88 92.383 L 34.88 92.383 Q 35.518 91.621 36.592 91.621 L 36.592 91.621 L 36.592 91.621 Q 37.598 91.621 38.184 92.283 L 38.184 92.283 L 38.184 92.283 Q 38.77 92.944 38.77 94.028 L 38.77 94.028 L 38.77 94.541 L 35.083 94.541 L 35.083 94.541 Q 35.107 95.483 35.559 95.972 L 35.559 95.972 L 35.559 95.972 Q 36.011 96.46 36.831 96.46 L 36.831 96.46 L 36.831 96.46 Q 37.695 96.46 38.54 96.099 L 38.54 96.099 L 38.54 96.821 L 38.54 96.821 Q 38.11 97.007 37.727 97.087 L 37.727 97.087 L 37.727 97.087 Q 37.344 97.168 36.802 97.168 Z  M 36.582 92.3 L 36.582 92.3 L 36.582 92.3 Q 35.938 92.3 35.554 92.72 L 35.554 92.72 L 35.554 92.72 Q 35.171 93.14 35.103 93.882 L 35.103 93.882 L 37.9 93.882 L 37.9 93.882 Q 37.9 93.115 37.559 92.708 L 37.559 92.708 L 37.559 92.708 Q 37.217 92.3 36.582 92.3 Z  M 42.29 97.168 L 42.29 97.168 L 42.29 97.168 Q 41.128 97.168 40.491 96.453 L 40.491 96.453 L 40.491 96.453 Q 39.854 95.737 39.854 94.429 L 39.854 94.429 L 39.854 94.429 Q 39.854 93.086 40.5 92.354 L 40.5 92.354 L 40.5 92.354 Q 41.147 91.621 42.344 91.621 L 42.344 91.621 L 42.344 91.621 Q 42.729 91.621 43.115 91.704 L 43.115 91.704 L 43.115 91.704 Q 43.501 91.787 43.721 91.899 L 43.721 91.899 L 43.472 92.588 L 43.472 92.588 Q 43.203 92.48 42.886 92.41 L 42.886 92.41 L 42.886 92.41 Q 42.568 92.339 42.324 92.339 L 42.324 92.339 L 42.324 92.339 Q 40.693 92.339 40.693 94.419 L 40.693 94.419 L 40.693 94.419 Q 40.693 95.405 41.091 95.933 L 41.091 95.933 L 41.091 95.933 Q 41.489 96.46 42.271 96.46 L 42.271 96.46 L 42.271 96.46 Q 42.939 96.46 43.643 96.172 L 43.643 96.172 L 43.643 96.89 L 43.643 96.89 Q 43.105 97.168 42.29 97.168 Z  M 49.531 94.39 L 49.531 94.39 L 49.531 94.39 Q 49.531 95.698 48.872 96.433 L 48.872 96.433 L 48.872 96.433 Q 48.213 97.168 47.051 97.168 L 47.051 97.168 L 47.051 97.168 Q 46.333 97.168 45.776 96.831 L 45.776 96.831 L 45.776 96.831 Q 45.22 96.494 44.917 95.864 L 44.917 95.864 L 44.917 95.864 Q 44.614 95.234 44.614 94.39 L 44.614 94.39 L 44.614 94.39 Q 44.614 93.081 45.269 92.351 L 45.269 92.351 L 45.269 92.351 Q 45.923 91.621 47.085 91.621 L 47.085 91.621 L 47.085 91.621 Q 48.208 91.621 48.87 92.368 L 48.87 92.368 L 48.87 92.368 Q 49.531 93.115 49.531 94.39 Z  M 45.454 94.39 L 45.454 94.39 L 45.454 94.39 Q 45.454 95.415 45.864 95.952 L 45.864 95.952 L 45.864 95.952 Q 46.274 96.489 47.07 96.489 L 47.07 96.489 L 47.07 96.489 Q 47.866 96.489 48.279 95.955 L 48.279 95.955 L 48.279 95.955 Q 48.691 95.42 48.691 94.39 L 48.691 94.39 L 48.691 94.39 Q 48.691 93.369 48.279 92.839 L 48.279 92.839 L 48.279 92.839 Q 47.866 92.31 47.061 92.31 L 47.061 92.31 L 47.061 92.31 Q 46.265 92.31 45.859 92.832 L 45.859 92.832 L 45.859 92.832 Q 45.454 93.354 45.454 94.39 Z  M 53.394 91.621 L 53.394 91.621 L 53.394 91.621 Q 53.75 91.621 54.033 91.68 L 54.033 91.68 L 53.921 92.432 L 53.921 92.432 Q 53.589 92.358 53.335 92.358 L 53.335 92.358 L 53.335 92.358 Q 52.686 92.358 52.224 92.886 L 52.224 92.886 L 52.224 92.886 Q 51.763 93.413 51.763 94.199 L 51.763 94.199 L 51.763 97.07 L 50.952 97.07 L 50.952 91.719 L 51.621 91.719 L 51.714 92.71 L 51.753 92.71 L 51.753 92.71 Q 52.051 92.188 52.471 91.904 L 52.471 91.904 L 52.471 91.904 Q 52.891 91.621 53.394 91.621 Z  M 58.784 97.07 L 58.677 96.353 L 58.633 96.353 L 58.633 96.353 Q 58.071 97.168 56.953 97.168 L 56.953 97.168 L 56.953 97.168 Q 55.903 97.168 55.32 96.45 L 55.32 96.45 L 55.32 96.45 Q 54.736 95.732 54.736 94.409 L 54.736 94.409 L 54.736 94.409 Q 54.736 93.086 55.322 92.354 L 55.322 92.354 L 55.322 92.354 Q 55.908 91.621 56.953 91.621 L 56.953 91.621 L 56.953 91.621 Q 58.042 91.621 58.623 92.412 L 58.623 92.412 L 58.687 92.412 L 58.652 92.026 L 58.633 91.65 L 58.633 89.473 L 59.443 89.473 L 59.443 97.07 L 58.784 97.07 L 58.784 97.07 Z  M 57.056 96.489 L 57.056 96.489 L 57.056 96.489 Q 57.886 96.489 58.259 96.038 L 58.259 96.038 L 58.259 96.038 Q 58.633 95.586 58.633 94.58 L 58.633 94.58 L 58.633 94.409 L 58.633 94.409 Q 58.633 93.271 58.254 92.786 L 58.254 92.786 L 58.254 92.786 Q 57.876 92.3 57.046 92.3 L 57.046 92.3 L 57.046 92.3 Q 56.333 92.3 55.955 92.854 L 55.955 92.854 L 55.955 92.854 Q 55.576 93.408 55.576 94.419 L 55.576 94.419 L 55.576 94.419 Q 55.576 95.444 55.952 95.967 L 55.952 95.967 L 55.952 95.967 Q 56.328 96.489 57.056 96.489 Z " fill-rule="evenodd" id="Compound Path" fill="rgb(0,0,0)" />
		<path d=" M 50.865 183.322 L 50.035 183.322 L 50.035 176.183 L 50.865 176.183 L 50.865 183.322 L 50.865 183.322 Z  M 57.174 183.322 L 56.363 183.322 L 56.363 179.86 L 56.363 179.86 Q 56.363 179.206 56.065 178.883 L 56.065 178.883 L 56.065 178.883 Q 55.767 178.561 55.133 178.561 L 55.133 178.561 L 55.133 178.561 Q 54.293 178.561 53.902 179.015 L 53.902 179.015 L 53.902 179.015 Q 53.511 179.469 53.511 180.514 L 53.511 180.514 L 53.511 183.322 L 52.701 183.322 L 52.701 177.97 L 53.36 177.97 L 53.492 178.703 L 53.531 178.703 L 53.531 178.703 Q 53.78 178.307 54.229 178.09 L 54.229 178.09 L 54.229 178.09 Q 54.678 177.873 55.23 177.873 L 55.23 177.873 L 55.23 177.873 Q 56.197 177.873 56.685 178.339 L 56.685 178.339 L 56.685 178.339 Q 57.174 178.805 57.174 179.831 L 57.174 179.831 L 57.174 183.322 L 57.174 183.322 Z  M 31.705 180.353 L 30.216 180.353 L 30.216 183.322 L 29.385 183.322 L 29.385 176.183 L 31.343 176.183 L 31.343 176.183 Q 32.657 176.183 33.284 176.686 L 33.284 176.686 L 33.284 176.686 Q 33.912 177.189 33.912 178.2 L 33.912 178.2 L 33.912 178.2 Q 33.912 179.616 32.476 180.114 L 32.476 180.114 L 34.415 183.322 L 33.433 183.322 L 31.705 180.353 L 31.705 180.353 Z  M 30.216 176.911 L 30.216 179.64 L 31.353 179.64 L 31.353 179.64 Q 32.232 179.64 32.642 179.291 L 32.642 179.291 L 32.642 179.291 Q 33.052 178.942 33.052 178.244 L 33.052 178.244 L 33.052 178.244 Q 33.052 177.536 32.635 177.223 L 32.635 177.223 L 32.635 177.223 Q 32.218 176.911 31.295 176.911 L 31.295 176.911 L 30.216 176.911 L 30.216 176.911 Z  M 39.547 182.58 L 39.547 183.322 L 35.567 183.322 L 35.567 176.183 L 39.547 176.183 L 39.547 176.92 L 36.397 176.92 L 36.397 179.22 L 39.356 179.22 L 39.356 179.953 L 36.397 179.953 L 36.397 182.58 L 39.547 182.58 L 39.547 182.58 Z  M 44.185 176.823 L 44.185 176.823 L 44.185 176.823 Q 43.009 176.823 42.327 177.607 L 42.327 177.607 L 42.327 177.607 Q 41.646 178.39 41.646 179.753 L 41.646 179.753 L 41.646 179.753 Q 41.646 181.154 42.303 181.918 L 42.303 181.918 L 42.303 181.918 Q 42.96 182.682 44.176 182.682 L 44.176 182.682 L 44.176 182.682 Q 44.923 182.682 45.88 182.414 L 45.88 182.414 L 45.88 183.141 L 45.88 183.141 Q 45.137 183.42 44.049 183.42 L 44.049 183.42 L 44.049 183.42 Q 42.471 183.42 41.614 182.462 L 41.614 182.462 L 41.614 182.462 Q 40.758 181.505 40.758 179.743 L 40.758 179.743 L 40.758 179.743 Q 40.758 178.639 41.17 177.809 L 41.17 177.809 L 41.17 177.809 Q 41.583 176.979 42.362 176.53 L 42.362 176.53 L 42.362 176.53 Q 43.14 176.081 44.195 176.081 L 44.195 176.081 L 44.195 176.081 Q 45.318 176.081 46.158 176.491 L 46.158 176.491 L 45.806 177.204 L 45.806 177.204 Q 44.996 176.823 44.185 176.823 Z " fill-rule="evenodd" id="Compound Path" fill="rgb(0,0,0)" />
		<path d=" M 55.841 236.482 L 55.01 236.482 L 55.01 229.343 L 55.841 229.343 L 55.841 236.482 L 55.841 236.482 Z  M 62.149 236.482 L 61.339 236.482 L 61.339 233.02 L 61.339 233.02 Q 61.339 232.366 61.041 232.043 L 61.041 232.043 L 61.041 232.043 Q 60.743 231.721 60.108 231.721 L 60.108 231.721 L 60.108 231.721 Q 59.268 231.721 58.878 232.175 L 58.878 232.175 L 58.878 232.175 Q 58.487 232.629 58.487 233.674 L 58.487 233.674 L 58.487 236.482 L 57.677 236.482 L 57.677 231.13 L 58.336 231.13 L 58.468 231.863 L 58.507 231.863 L 58.507 231.863 Q 58.756 231.467 59.205 231.25 L 59.205 231.25 L 59.205 231.25 Q 59.654 231.033 60.206 231.033 L 60.206 231.033 L 60.206 231.033 Q 61.173 231.033 61.661 231.499 L 61.661 231.499 L 61.661 231.499 Q 62.149 231.965 62.149 232.991 L 62.149 232.991 L 62.149 236.482 L 62.149 236.482 Z  M 28.912 231.423 L 28.912 231.423 L 28.912 231.423 Q 28.912 232.507 28.172 233.091 L 28.172 233.091 L 28.172 233.091 Q 27.432 233.674 26.055 233.674 L 26.055 233.674 L 25.216 233.674 L 25.216 236.482 L 24.385 236.482 L 24.385 229.343 L 26.236 229.343 L 26.236 229.343 Q 28.912 229.343 28.912 231.423 Z  M 25.216 230.061 L 25.216 232.961 L 25.963 232.961 L 25.963 232.961 Q 27.066 232.961 27.559 232.605 L 27.559 232.605 L 27.559 232.605 Q 28.052 232.248 28.052 231.462 L 28.052 231.462 L 28.052 231.462 Q 28.052 230.754 27.589 230.408 L 27.589 230.408 L 27.589 230.408 Q 27.125 230.061 26.143 230.061 L 26.143 230.061 L 25.216 230.061 L 25.216 230.061 Z  M 31.236 236.482 L 30.406 236.482 L 30.406 229.343 L 31.236 229.343 L 31.236 236.482 L 31.236 236.482 Z  M 35.391 230.08 L 35.391 236.482 L 34.561 236.482 L 34.561 230.08 L 32.301 230.08 L 32.301 229.343 L 37.652 229.343 L 37.652 230.08 L 35.391 230.08 L 35.391 230.08 Z  M 41.783 229.983 L 41.783 229.983 L 41.783 229.983 Q 40.606 229.983 39.925 230.766 L 39.925 230.766 L 39.925 230.766 Q 39.244 231.55 39.244 232.912 L 39.244 232.912 L 39.244 232.912 Q 39.244 234.314 39.901 235.078 L 39.901 235.078 L 39.901 235.078 Q 40.557 235.842 41.773 235.842 L 41.773 235.842 L 41.773 235.842 Q 42.52 235.842 43.477 235.574 L 43.477 235.574 L 43.477 236.301 L 43.477 236.301 Q 42.735 236.579 41.646 236.579 L 41.646 236.579 L 41.646 236.579 Q 40.069 236.579 39.212 235.622 L 39.212 235.622 L 39.212 235.622 Q 38.355 234.665 38.355 232.903 L 38.355 232.903 L 38.355 232.903 Q 38.355 231.799 38.768 230.969 L 38.768 230.969 L 38.768 230.969 Q 39.18 230.139 39.959 229.69 L 39.959 229.69 L 39.959 229.69 Q 40.738 229.241 41.793 229.241 L 41.793 229.241 L 41.793 229.241 Q 42.916 229.241 43.756 229.651 L 43.756 229.651 L 43.404 230.364 L 43.404 230.364 Q 42.593 229.983 41.783 229.983 Z  M 50.455 229.343 L 50.455 236.482 L 49.625 236.482 L 49.625 233.122 L 45.865 233.122 L 45.865 236.482 L 45.035 236.482 L 45.035 229.343 L 45.865 229.343 L 45.865 232.38 L 49.625 232.38 L 49.625 229.343 L 50.455 229.343 L 50.455 229.343 Z " fill-rule="evenodd" id="Compound Path" fill="rgb(0,0,0)" />
		<path d=" M 51.731 298.834 L 51.731 298.834 L 51.731 298.834 Q 51.731 300.548 50.864 301.53 L 50.864 301.53 L 50.864 301.53 Q 49.998 302.511 48.455 302.511 L 48.455 302.511 L 48.455 302.511 Q 46.878 302.511 46.021 301.547 L 46.021 301.547 L 46.021 301.547 Q 45.164 300.582 45.164 298.825 L 45.164 298.825 L 45.164 298.825 Q 45.164 297.081 46.023 296.122 L 46.023 296.122 L 46.023 296.122 Q 46.883 295.163 48.465 295.163 L 48.465 295.163 L 48.465 295.163 Q 50.003 295.163 50.867 296.139 L 50.867 296.139 L 50.867 296.139 Q 51.731 297.116 51.731 298.834 Z  M 46.043 298.834 L 46.043 298.834 L 46.043 298.834 Q 46.043 300.285 46.66 301.034 L 46.66 301.034 L 46.66 301.034 Q 47.278 301.784 48.455 301.784 L 48.455 301.784 L 48.455 301.784 Q 49.641 301.784 50.247 301.037 L 50.247 301.037 L 50.247 301.037 Q 50.852 300.289 50.852 298.834 L 50.852 298.834 L 50.852 298.834 Q 50.852 297.394 50.249 296.649 L 50.249 296.649 L 50.249 296.649 Q 49.646 295.905 48.465 295.905 L 48.465 295.905 L 48.465 295.905 Q 47.278 295.905 46.66 296.654 L 46.66 296.654 L 46.66 296.654 Q 46.043 297.404 46.043 298.834 Z  M 53.142 297.062 L 53.963 297.062 L 53.963 300.534 L 53.963 300.534 Q 53.963 301.188 54.26 301.51 L 54.26 301.51 L 54.26 301.51 Q 54.558 301.832 55.193 301.832 L 55.193 301.832 L 55.193 301.832 Q 56.033 301.832 56.421 301.373 L 56.421 301.373 L 56.421 301.373 Q 56.809 300.914 56.809 299.874 L 56.809 299.874 L 56.809 297.062 L 57.62 297.062 L 57.62 302.414 L 56.951 302.414 L 56.834 301.696 L 56.79 301.696 L 56.79 301.696 Q 56.541 302.091 56.099 302.301 L 56.099 302.301 L 56.099 302.301 Q 55.657 302.511 55.091 302.511 L 55.091 302.511 L 55.091 302.511 Q 54.114 302.511 53.628 302.047 L 53.628 302.047 L 53.628 302.047 Q 53.142 301.583 53.142 300.563 L 53.142 300.563 L 53.142 297.062 L 53.142 297.062 Z  M 61.067 301.842 L 61.067 301.842 L 61.067 301.842 Q 61.282 301.842 61.482 301.81 L 61.482 301.81 L 61.482 301.81 Q 61.682 301.779 61.8 301.745 L 61.8 301.745 L 61.8 302.365 L 61.8 302.365 Q 61.668 302.428 61.411 302.47 L 61.411 302.47 L 61.411 302.47 Q 61.155 302.511 60.95 302.511 L 60.95 302.511 L 60.95 302.511 Q 59.397 302.511 59.397 300.875 L 59.397 300.875 L 59.397 297.692 L 58.631 297.692 L 58.631 297.301 L 59.397 296.964 L 59.739 295.822 L 60.208 295.822 L 60.208 297.062 L 61.76 297.062 L 61.76 297.692 L 60.208 297.692 L 60.208 300.841 L 60.208 300.841 Q 60.208 301.325 60.437 301.583 L 60.437 301.583 L 60.437 301.583 Q 60.667 301.842 61.067 301.842 Z  M 27.205 299.445 L 25.716 299.445 L 25.716 302.414 L 24.885 302.414 L 24.885 295.275 L 26.843 295.275 L 26.843 295.275 Q 28.157 295.275 28.784 295.778 L 28.784 295.778 L 28.784 295.778 Q 29.412 296.281 29.412 297.291 L 29.412 297.291 L 29.412 297.291 Q 29.412 298.707 27.976 299.206 L 27.976 299.206 L 29.915 302.414 L 28.933 302.414 L 27.205 299.445 L 27.205 299.445 Z  M 25.716 296.002 L 25.716 298.732 L 26.853 298.732 L 26.853 298.732 Q 27.732 298.732 28.142 298.383 L 28.142 298.383 L 28.142 298.383 Q 28.552 298.034 28.552 297.335 L 28.552 297.335 L 28.552 297.335 Q 28.552 296.627 28.135 296.315 L 28.135 296.315 L 28.135 296.315 Q 27.718 296.002 26.795 296.002 L 26.795 296.002 L 25.716 296.002 L 25.716 296.002 Z  M 35.047 301.671 L 35.047 302.414 L 31.067 302.414 L 31.067 295.275 L 35.047 295.275 L 35.047 296.012 L 31.897 296.012 L 31.897 298.312 L 34.856 298.312 L 34.856 299.044 L 31.897 299.044 L 31.897 301.671 L 35.047 301.671 L 35.047 301.671 Z  M 39.685 295.914 L 39.685 295.914 L 39.685 295.914 Q 38.509 295.914 37.827 296.698 L 37.827 296.698 L 37.827 296.698 Q 37.146 297.482 37.146 298.844 L 37.146 298.844 L 37.146 298.844 Q 37.146 300.246 37.803 301.01 L 37.803 301.01 L 37.803 301.01 Q 38.46 301.774 39.676 301.774 L 39.676 301.774 L 39.676 301.774 Q 40.423 301.774 41.38 301.505 L 41.38 301.505 L 41.38 302.233 L 41.38 302.233 Q 40.637 302.511 39.549 302.511 L 39.549 302.511 L 39.549 302.511 Q 37.971 302.511 37.114 301.554 L 37.114 301.554 L 37.114 301.554 Q 36.258 300.597 36.258 298.834 L 36.258 298.834 L 36.258 298.834 Q 36.258 297.731 36.67 296.901 L 36.67 296.901 L 36.67 296.901 Q 37.083 296.071 37.862 295.622 L 37.862 295.622 L 37.862 295.622 Q 38.64 295.172 39.695 295.172 L 39.695 295.172 L 39.695 295.172 Q 40.818 295.172 41.658 295.582 L 41.658 295.582 L 41.306 296.295 L 41.306 296.295 Q 40.496 295.914 39.685 295.914 Z " fill-rule="evenodd" id="Compound Path" fill="rgb(0,0,0)" />
		<path d=" M 56.707 352.926 L 56.707 352.926 L 56.707 352.926 Q 56.707 354.64 55.84 355.621 L 55.84 355.621 L 55.84 355.621 Q 54.973 356.603 53.43 356.603 L 53.43 356.603 L 53.43 356.603 Q 51.853 356.603 50.996 355.638 L 50.996 355.638 L 50.996 355.638 Q 50.139 354.674 50.139 352.916 L 50.139 352.916 L 50.139 352.916 Q 50.139 351.173 50.999 350.214 L 50.999 350.214 L 50.999 350.214 Q 51.858 349.254 53.44 349.254 L 53.44 349.254 L 53.44 349.254 Q 54.978 349.254 55.843 350.231 L 55.843 350.231 L 55.843 350.231 Q 56.707 351.207 56.707 352.926 Z  M 51.018 352.926 L 51.018 352.926 L 51.018 352.926 Q 51.018 354.376 51.636 355.126 L 51.636 355.126 L 51.636 355.126 Q 52.254 355.875 53.43 355.875 L 53.43 355.875 L 53.43 355.875 Q 54.617 355.875 55.222 355.128 L 55.222 355.128 L 55.222 355.128 Q 55.828 354.381 55.828 352.926 L 55.828 352.926 L 55.828 352.926 Q 55.828 351.486 55.225 350.741 L 55.225 350.741 L 55.225 350.741 Q 54.622 349.996 53.44 349.996 L 53.44 349.996 L 53.44 349.996 Q 52.254 349.996 51.636 350.746 L 51.636 350.746 L 51.636 350.746 Q 51.018 351.495 51.018 352.926 Z  M 58.118 351.154 L 58.938 351.154 L 58.938 354.625 L 58.938 354.625 Q 58.938 355.28 59.236 355.602 L 59.236 355.602 L 59.236 355.602 Q 59.534 355.924 60.169 355.924 L 60.169 355.924 L 60.169 355.924 Q 61.009 355.924 61.397 355.465 L 61.397 355.465 L 61.397 355.465 Q 61.785 355.006 61.785 353.966 L 61.785 353.966 L 61.785 351.154 L 62.595 351.154 L 62.595 356.505 L 61.927 356.505 L 61.809 355.787 L 61.765 355.787 L 61.765 355.787 Q 61.516 356.183 61.074 356.393 L 61.074 356.393 L 61.074 356.393 Q 60.633 356.603 60.066 356.603 L 60.066 356.603 L 60.066 356.603 Q 59.09 356.603 58.604 356.139 L 58.604 356.139 L 58.604 356.139 Q 58.118 355.675 58.118 354.655 L 58.118 354.655 L 58.118 351.154 L 58.118 351.154 Z  M 66.043 355.934 L 66.043 355.934 L 66.043 355.934 Q 66.258 355.934 66.458 355.902 L 66.458 355.902 L 66.458 355.902 Q 66.658 355.87 66.775 355.836 L 66.775 355.836 L 66.775 356.456 L 66.775 356.456 Q 66.643 356.52 66.387 356.561 L 66.387 356.561 L 66.387 356.561 Q 66.131 356.603 65.926 356.603 L 65.926 356.603 L 65.926 356.603 Q 64.373 356.603 64.373 354.967 L 64.373 354.967 L 64.373 351.783 L 63.606 351.783 L 63.606 351.393 L 64.373 351.056 L 64.715 349.913 L 65.183 349.913 L 65.183 351.154 L 66.736 351.154 L 66.736 351.783 L 65.183 351.783 L 65.183 354.933 L 65.183 354.933 Q 65.183 355.416 65.413 355.675 L 65.413 355.675 L 65.413 355.675 Q 65.642 355.934 66.043 355.934 Z  M 24.412 351.447 L 24.412 351.447 L 24.412 351.447 Q 24.412 352.531 23.672 353.114 L 23.672 353.114 L 23.672 353.114 Q 22.932 353.698 21.555 353.698 L 21.555 353.698 L 20.716 353.698 L 20.716 356.505 L 19.885 356.505 L 19.885 349.366 L 21.736 349.366 L 21.736 349.366 Q 24.412 349.366 24.412 351.447 Z  M 20.716 350.084 L 20.716 352.985 L 21.463 352.985 L 21.463 352.985 Q 22.566 352.985 23.059 352.628 L 23.059 352.628 L 23.059 352.628 Q 23.552 352.272 23.552 351.486 L 23.552 351.486 L 23.552 351.486 Q 23.552 350.778 23.089 350.431 L 23.089 350.431 L 23.089 350.431 Q 22.625 350.084 21.643 350.084 L 21.643 350.084 L 20.716 350.084 L 20.716 350.084 Z  M 26.736 356.505 L 25.906 356.505 L 25.906 349.366 L 26.736 349.366 L 26.736 356.505 L 26.736 356.505 Z  M 30.891 350.104 L 30.891 356.505 L 30.061 356.505 L 30.061 350.104 L 27.801 350.104 L 27.801 349.366 L 33.152 349.366 L 33.152 350.104 L 30.891 350.104 L 30.891 350.104 Z  M 37.283 350.006 L 37.283 350.006 L 37.283 350.006 Q 36.106 350.006 35.425 350.79 L 35.425 350.79 L 35.425 350.79 Q 34.744 351.574 34.744 352.936 L 34.744 352.936 L 34.744 352.936 Q 34.744 354.337 35.401 355.101 L 35.401 355.101 L 35.401 355.101 Q 36.057 355.866 37.273 355.866 L 37.273 355.866 L 37.273 355.866 Q 38.02 355.866 38.977 355.597 L 38.977 355.597 L 38.977 356.325 L 38.977 356.325 Q 38.235 356.603 37.146 356.603 L 37.146 356.603 L 37.146 356.603 Q 35.569 356.603 34.712 355.646 L 34.712 355.646 L 34.712 355.646 Q 33.855 354.689 33.855 352.926 L 33.855 352.926 L 33.855 352.926 Q 33.855 351.823 34.268 350.992 L 34.268 350.992 L 34.268 350.992 Q 34.68 350.162 35.459 349.713 L 35.459 349.713 L 35.459 349.713 Q 36.238 349.264 37.293 349.264 L 37.293 349.264 L 37.293 349.264 Q 38.416 349.264 39.256 349.674 L 39.256 349.674 L 38.904 350.387 L 38.904 350.387 Q 38.093 350.006 37.283 350.006 Z  M 45.955 349.366 L 45.955 356.505 L 45.125 356.505 L 45.125 353.146 L 41.365 353.146 L 41.365 356.505 L 40.535 356.505 L 40.535 349.366 L 41.365 349.366 L 41.365 352.404 L 45.125 352.404 L 45.125 349.366 L 45.955 349.366 L 45.955 349.366 Z " fill-rule="evenodd" id="Compound Path" fill="rgb(0,0,0)" />
	</g>
</svg>
